<?xml version="1.0" encoding="utf-8"?>
<!-- Generator: Adobe Illustrator 23.0.0, SVG Export Plug-In . SVG Version: 6.00 Build 0)  -->
<svg version="1.1" id="Capa_1" xmlns="http://www.w3.org/2000/svg" xmlns:xlink="http://www.w3.org/1999/xlink" x="0px" y="0px"
	 viewBox="0 0 264.3 156.7" enable-background="new 0 0 264.3 156.7" xml:space="preserve">
<g id="Capa_x0020_1">
	<g id="_985231776">
		<path d="M8.1,64.8C49.3,22.9,90.7,1.7,132.4,1.5s83.2,20.8,124.4,63.4c0.2,0.2,0.3,0.3,0.3,0.5c3.7,4.2,5.6,8.4,5.6,12.9
			c0,4.6-2,9-5.9,12.9c-41.1,42-82.4,63.5-124.1,63.8C91,155.1,49.5,134.2,8.3,91.4C4.4,87.8,1.6,84,1.1,79.2
			C0.8,74.5,2.7,69.6,8.1,64.8z M132.4,14.6C94.3,14.7,56,34.7,17.2,73.9l0,0c0,0.2-0.2,0.3-0.3,0.3c-2,1.9-2.8,3.1-2.8,3.9
			c0.2,0.9,1.2,2.2,2.8,3.6v0.2c0.2,0,0.3,0.2,0.5,0.3c38.7,40.3,77.2,60,115.1,59.8c38.1-0.3,76.4-20.5,115-59.8l0,0V82
			c1.4-1.4,2.2-2.6,2.2-3.7c0-1.2-0.8-2.6-2.2-4.3l0,0C208.8,34.1,170.5,14.4,132.4,14.6z"/>
		<path fill-rule="evenodd" clip-rule="evenodd" d="M131.9,21.7c28.7,0,51.8,23.2,51.8,51.8c0,28.7-23.1,51.9-51.8,51.9
			S80,102.1,80,73.4C80,44.9,103.2,21.7,131.9,21.7z M120.6,33.5c9.6,0,17.4,7.7,17.4,17.4c0,9.5-7.7,17.4-17.4,17.4
			s-17.4-7.9-17.4-17.4C103.2,41.2,111,33.5,120.6,33.5z"/>
	</g>
</g>
</svg>
