<?xml version="1.0" encoding="UTF-8"?>
<!DOCTYPE svg PUBLIC "-//W3C//DTD SVG 1.1//EN" "http://www.w3.org/Graphics/SVG/1.1/DTD/svg11.dtd">
<!-- Creator: CorelDRAW X7 -->
<svg xmlns="http://www.w3.org/2000/svg" xml:space="preserve" width="17.6388mm" height="17.6388mm" version="1.1" style="shape-rendering:geometricPrecision; text-rendering:geometricPrecision; image-rendering:optimizeQuality; fill-rule:evenodd; clip-rule:evenodd"
viewBox="0 0 1764 1764"
 xmlns:xlink="http://www.w3.org/1999/xlink">
 <defs>

 </defs>
 <g id="Capa_x0020_1">
  <metadata id="CorelCorpID_0Corel-Layer"/>
  <path class="fil0" d="M127 1215c-13,19 -39,24 -58,11 -20,-13 -25,-39 -11,-58l93 -137c-24,-23 -48,-46 -72,-71 -2,-3 -4,-5 -6,-7l-7 -8c-17,-16 -17,-43 -1,-59 16,-17 43,-17 59,-1l119 116c215,192 427,286 638,285 243,-2 488,-127 731,-376 7,-7 14,-12 20,-17l11 -10c16,-15 41,-15 57,0 7,4 11,10 12,18 4,15 0,31 -11,43l-113 108 91 134c14,19 9,46 -11,59 -19,13 -45,8 -58,-11l-87 -129c-43,35 -86,67 -129,95 1,1 1,3 2,4l68 172c9,21 -2,46 -23,54 -22,9 -46,-2 -55,-23l-64 -163c-50,29 -101,52 -151,71l40 174c5,23 -9,45 -32,51 -22,5 -45,-9 -50,-32l-38 -167c-58,15 -115,24 -172,27l0 1 0 185c0,23 -19,42 -42,42 -23,0 -42,-19 -42,-42l0 -185 0 -1c-63,-3 -126,-14 -189,-32l-38 167c-5,22 -28,37 -50,31 -23,-5 -37,-27 -32,-50l41 -176c-52,-20 -104,-46 -155,-77l-61 154c-9,21 -33,32 -55,23 -21,-8 -32,-33 -23,-54l67 -169c-42,-29 -84,-62 -126,-98l-87 128z"/>
 </g>
</svg>
